<svg width="64" height="64" viewBox="0 0 64 64" fill="none" xmlns="http://www.w3.org/2000/svg">
  <rect width="64" height="64" rx="14" fill="#FF0000"/>
  <path d="M52.4 22.1C51.9 20.2 50.4 18.7 48.5 18.2C44.9 17.3 32 17.3 32 17.3C32 17.3 19.1 17.3 15.5 18.2C13.6 18.7 12.1 20.2 11.6 22.1C10.7 25.7 10.7 32 10.7 32C10.7 32 10.7 38.3 11.6 41.9C12.1 43.8 13.6 45.3 15.5 45.8C19.1 46.7 32 46.7 32 46.7C32 46.7 44.9 46.7 48.5 45.8C50.4 45.3 51.9 43.8 52.4 41.9C53.3 38.3 53.3 32 53.3 32C53.3 32 53.3 25.7 52.4 22.1Z" fill="#FF0000"/>
  <path d="M27.3 38.9L38.9 32L27.3 25.1V38.9Z" fill="white"/>
</svg>
